<?xml version="1.0" encoding="utf-8"?>
<!-- Generator: Adobe Illustrator 21.1.0, SVG Export Plug-In . SVG Version: 6.00 Build 0)  -->
<svg version="1.1" xmlns="http://www.w3.org/2000/svg" xmlns:xlink="http://www.w3.org/1999/xlink" x="0px" y="0px"
	 viewBox="0 0 841.9 595.3" style="enable-background:new 0 0 841.9 595.3;" xml:space="preserve">
<style type="text/css">
	.st0{fill:#4097CD;}
	.st1{fill:#306E8E;}
	.st2{font-family:'Ubuntu-Bold';}
	.st3{font-size:54.6375px;}
	.st4{fill:none;stroke:#000000;stroke-width:0.25;stroke-miterlimit:10;}
	.st5{fill:#FFFFFF;}
	.st6{fill:#FFFFFF;stroke:#FFFFFF;stroke-width:2;stroke-miterlimit:10;}
	.st7{fill:#A3030B;}
	.st8{font-size:11px;}
</style>
<g id="Calque_2">
	<path class="st0" d="M557.5,416.6H284.4c-76.7,0-139.5-62.8-139.5-139.5v0c0-76.7,62.8-139.5,139.5-139.5h273.1
		c76.7,0,139.5,62.8,139.5,139.5v0C697,353.8,634.2,416.6,557.5,416.6z"/>
	<g>
	</g>
	<g>
	</g>
	<g>
	</g>
	<g>
	</g>
	<g>
	</g>
	<g>
	</g>
	<g>
	</g>
	<g>
	</g>
	<g>
	</g>
	<g>
	</g>
	<g>
	</g>
	<g>
	</g>
	<g>
	</g>
	<g>
	</g>
	<g>
	</g>
</g>
<g id="Calque_3">
	<g>
		<text transform="matrix(1 0 0 1 200.4695 373.2209)" class="st1 st2 st3">Groupe_Avancé()</text>
		<g>
			<g>
				<path class="st1" d="M482.6,198l-3.6-3.6l-25-25c0,0,0,0,0,0l-2-2c-0.9-0.9-2.2-1.4-3.5-1.4h-76.2c-3.1,0-6.5,2.4-6.5,7.7v94.8
					v43.4v1.2c0,2.2,2.2,4.3,4.8,5c0.1,0,0.3,0.1,0.4,0.1c0.4,0.1,0.8,0.1,1.2,0.1h105.3c0.4,0,0.8,0,1.2-0.1c0.1,0,0.3-0.1,0.4-0.1
					c2.6-0.7,4.8-2.8,4.8-5v-1.2v-43.4v-65.7C484.1,200.7,483.8,199.2,482.6,198z M452.5,175.4l22.2,22.2h-22.2V175.4z M372.3,313.1
					c-0.2,0-0.4-0.1-0.5-0.1c-0.4-0.2-0.7-0.6-0.7-1.1v-38.2h107.7v38.2c0,0.5-0.3,0.9-0.7,1.1c-0.2,0.1-0.3,0.1-0.5,0.1H372.3z
					 M371.1,268.4v-94.8c0-0.6,0.1-2.4,1.2-2.4h75.1c-0.1,0.3-0.2,0.7-0.2,1v29.9c-1.4-1.3-3.2-2-5.3-2c-1.5,0-2.6,1.2-2.6,2.6
					s1.2,2.6,2.6,2.6c1.5,0,2.6,1.2,2.6,2.6v10.5c0,3.2,1.4,6,3.6,7.9c-2.2,1.9-3.6,4.7-3.6,7.9v10.5c0,1.4-1.2,2.6-2.6,2.6
					c-1.5,0-2.6,1.2-2.6,2.6c0,1.5,1.2,2.6,2.6,2.6c4.3,0,7.9-3.5,7.9-7.9v-10.5c0-2.9,2.4-5.3,5.3-5.3c1.5,0,2.6-1.2,2.6-2.6
					s-1.2-2.6-2.6-2.6c-2.9,0-5.3-2.4-5.3-5.3V208c0-2-0.8-3.9-2-5.3h29.9c0.4,0,0.7-0.1,1-0.2c0,0,0,0.1,0,0.1v65.7H371.1z"/>
				<path class="st1" d="M402.6,218.5V208c0-1.4,1.2-2.6,2.6-2.6c1.5,0,2.6-1.2,2.6-2.6s-1.2-2.6-2.6-2.6c-4.3,0-7.9,3.5-7.9,7.9
					v10.5c0,2.9-2.4,5.3-5.3,5.3c-1.5,0-2.6,1.2-2.6,2.6s1.2,2.6,2.6,2.6c2.9,0,5.3,2.4,5.3,5.3v10.5c0,4.3,3.5,7.9,7.9,7.9
					c1.5,0,2.6-1.2,2.6-2.6c0-1.5-1.2-2.6-2.6-2.6c-1.5,0-2.6-1.2-2.6-2.6v-10.5c0-3.2-1.4-6-3.6-7.9
					C401.2,224.5,402.6,221.7,402.6,218.5z"/>
				<circle class="st1" cx="423.6" cy="217.2" r="3.9"/>
				<path class="st1" d="M423.6,231.7c-1.5,0-2.6,1.2-2.6,2.6v7.9c0,1.5,1.2,2.6,2.6,2.6s2.6-1.2,2.6-2.6v-7.9
					C426.3,232.8,425.1,231.7,423.6,231.7z"/>
			</g>
			<g>
				<path class="st1" d="M409.6,286.2c-2.5,0-4.4,0.7-5.5,2.1c-1.1,1.4-1.7,3.3-1.7,5.8c0,1.2,0.1,2.3,0.4,3.2
					c0.3,1,0.7,1.8,1.3,2.5c0.6,0.7,1.3,1.2,2.1,1.6c0.8,0.4,1.8,0.6,2.9,0.6c0.6,0,1.1,0,1.5,0c0.4,0,0.8-0.1,1.1-0.1v-8.4h5.4
					v11.9c-0.6,0.3-1.7,0.5-3.1,0.8c-1.4,0.3-3.2,0.4-5.3,0.4c-1.8,0-3.4-0.3-4.9-0.8c-1.5-0.6-2.7-1.4-3.8-2.4
					c-1-1.1-1.8-2.4-2.4-3.9c-0.6-1.6-0.9-3.3-0.9-5.3c0-2,0.3-3.8,0.9-5.4c0.6-1.6,1.5-2.9,2.6-3.9c1.1-1.1,2.4-1.9,3.8-2.5
					c1.5-0.6,3-0.8,4.7-0.8c1.1,0,2.2,0.1,3.1,0.2c0.9,0.2,1.7,0.3,2.4,0.5c0.7,0.2,1.2,0.4,1.6,0.6s0.7,0.4,0.9,0.5l-1.6,4.3
					c-0.7-0.4-1.6-0.7-2.6-1S410.7,286.2,409.6,286.2z"/>
				<path class="st1" d="M427.7,303.3c0,1-0.3,1.8-1,2.4c-0.7,0.5-1.4,0.8-2.2,0.8c-0.8,0-1.6-0.3-2.2-0.8c-0.7-0.5-1-1.3-1-2.4
					c0-1,0.3-1.8,1-2.4c0.7-0.5,1.4-0.8,2.2-0.8c0.8,0,1.6,0.3,2.2,0.8C427.3,301.5,427.7,302.3,427.7,303.3z"/>
				<path class="st1" d="M448.7,306.1c-0.3-0.8-0.6-1.7-0.9-2.6s-0.6-1.8-0.9-2.6h-9.4c-0.3,0.9-0.6,1.8-0.9,2.6s-0.6,1.7-0.9,2.6
					h-5.6c0.9-2.6,1.8-5,2.6-7.2c0.8-2.2,1.6-4.3,2.4-6.2c0.8-1.9,1.5-3.8,2.3-5.5c0.8-1.7,1.5-3.5,2.4-5.1h5.1
					c0.8,1.7,1.6,3.4,2.3,5.1c0.8,1.7,1.5,3.6,2.3,5.5c0.8,1.9,1.6,4,2.4,6.2c0.8,2.2,1.7,4.6,2.6,7.2H448.7z M442.2,287.4
					c-0.1,0.4-0.3,0.8-0.5,1.4c-0.2,0.6-0.5,1.3-0.8,2.1s-0.6,1.7-1,2.6s-0.7,1.9-1.1,3h6.9c-0.4-1-0.7-2-1.1-3
					c-0.3-1-0.7-1.8-1-2.6c-0.3-0.8-0.6-1.5-0.8-2.1C442.5,288.3,442.3,287.8,442.2,287.4z"/>
			</g>
		</g>
	</g>
</g>
<g id="Calque_1">
	<path class="st4" d="M280.2,217.7"/>
	<path class="st4" d="M280.2,183.4"/>
	<path class="st4" d="M154.7,292.3"/>
	<path class="st4" d="M405.5,292.3"/>
	<path class="st4" d="M154.7,328.3"/>
	<path class="st4" d="M405.5,328.3"/>
	<path class="st4" d="M402.6,343.7"/>
	<path class="st4" d="M278.8,292.3"/>
	<text transform="matrix(1 0 0 1 196.4695 368.6885)" class="st5 st2 st3">Groupe_Avancé()</text>
	<g>
		<g>
			<path class="st6" d="M478.6,193.5l-3.6-3.6l-25-25c0,0,0,0,0,0l-2-2c-0.9-0.9-2.2-1.4-3.5-1.4h-76.2c-3.1,0-6.5,2.4-6.5,7.7v94.8
				v43.4v1.2c0,2.2,2.2,4.3,4.8,5c0.1,0,0.3,0.1,0.4,0.1c0.4,0.1,0.8,0.1,1.2,0.1h105.3c0.4,0,0.8,0,1.2-0.1c0.1,0,0.3-0.1,0.4-0.1
				c2.6-0.7,4.8-2.8,4.8-5v-1.2v-43.4v-65.7C480.1,196.2,479.8,194.7,478.6,193.5z M448.5,170.8l22.2,22.2h-22.2V170.8z
				 M368.3,308.6c-0.2,0-0.4-0.1-0.5-0.1c-0.4-0.2-0.7-0.6-0.7-1.1v-38.2h107.7v38.2c0,0.5-0.3,0.9-0.7,1.1
				c-0.2,0.1-0.3,0.1-0.5,0.1H368.3z M367.1,263.9v-94.8c0-0.6,0.1-2.4,1.2-2.4h75.1c-0.1,0.3-0.2,0.7-0.2,1v29.9
				c-1.4-1.3-3.2-2-5.3-2c-1.5,0-2.6,1.2-2.6,2.6s1.2,2.6,2.6,2.6c1.5,0,2.6,1.2,2.6,2.6V214c0,3.2,1.4,6,3.6,7.9
				c-2.2,1.9-3.6,4.7-3.6,7.9v10.5c0,1.4-1.2,2.6-2.6,2.6c-1.5,0-2.6,1.2-2.6,2.6s1.2,2.6,2.6,2.6c4.3,0,7.9-3.5,7.9-7.9v-10.5
				c0-2.9,2.4-5.3,5.3-5.3c1.5,0,2.6-1.2,2.6-2.6c0-1.5-1.2-2.6-2.6-2.6c-2.9,0-5.3-2.4-5.3-5.3v-10.5c0-2-0.8-3.9-2-5.3h29.9
				c0.4,0,0.7-0.1,1-0.2c0,0,0,0.1,0,0.1v65.7H367.1z"/>
			<path class="st6" d="M398.6,214v-10.5c0-1.4,1.2-2.6,2.6-2.6c1.5,0,2.6-1.2,2.6-2.6s-1.2-2.6-2.6-2.6c-4.3,0-7.9,3.5-7.9,7.9V214
				c0,2.9-2.4,5.3-5.3,5.3c-1.5,0-2.6,1.2-2.6,2.6c0,1.5,1.2,2.6,2.6,2.6c2.9,0,5.3,2.4,5.3,5.3v10.5c0,4.3,3.5,7.9,7.9,7.9
				c1.5,0,2.6-1.2,2.6-2.6c0-1.5-1.2-2.6-2.6-2.6c-1.5,0-2.6-1.2-2.6-2.6v-10.5c0-3.2-1.4-6-3.6-7.9
				C397.2,219.9,398.6,217.1,398.6,214z"/>
			<circle class="st6" cx="419.6" cy="212.7" r="3.9"/>
			<path class="st6" d="M419.6,227.1c-1.5,0-2.6,1.2-2.6,2.6v7.9c0,1.5,1.2,2.6,2.6,2.6s2.6-1.2,2.6-2.6v-7.9
				C422.3,228.3,421.1,227.1,419.6,227.1z"/>
		</g>
		<g>
			<path class="st5" d="M405.6,281.6c-2.5,0-4.4,0.7-5.5,2.1c-1.1,1.4-1.7,3.3-1.7,5.8c0,1.2,0.1,2.3,0.4,3.2c0.3,1,0.7,1.8,1.3,2.5
				c0.6,0.7,1.3,1.2,2.1,1.6c0.8,0.4,1.8,0.6,2.9,0.6c0.6,0,1.1,0,1.5,0c0.4,0,0.8-0.1,1.1-0.1v-8.4h5.4v11.9
				c-0.6,0.3-1.7,0.5-3.1,0.8c-1.4,0.3-3.2,0.4-5.3,0.4c-1.8,0-3.4-0.3-4.9-0.8c-1.5-0.6-2.7-1.4-3.8-2.4c-1-1.1-1.8-2.4-2.4-3.9
				c-0.6-1.6-0.9-3.3-0.9-5.3c0-2,0.3-3.8,0.9-5.4c0.6-1.6,1.5-2.9,2.6-3.9c1.1-1.1,2.4-1.9,3.8-2.5c1.5-0.6,3-0.8,4.7-0.8
				c1.1,0,2.2,0.1,3.1,0.2c0.9,0.2,1.7,0.3,2.4,0.5c0.7,0.2,1.2,0.4,1.6,0.6s0.7,0.4,0.9,0.5l-1.6,4.3c-0.7-0.4-1.6-0.7-2.6-1
				S406.7,281.6,405.6,281.6z"/>
			<path class="st5" d="M423.7,298.8c0,1-0.3,1.8-1,2.4c-0.7,0.5-1.4,0.8-2.2,0.8c-0.8,0-1.6-0.3-2.2-0.8c-0.7-0.5-1-1.3-1-2.4
				c0-1,0.3-1.8,1-2.4c0.7-0.5,1.4-0.8,2.2-0.8c0.8,0,1.6,0.3,2.2,0.8C423.3,297,423.7,297.7,423.7,298.8z"/>
			<path class="st5" d="M444.7,301.5c-0.3-0.8-0.6-1.7-0.9-2.6s-0.6-1.8-0.9-2.6h-9.4c-0.3,0.9-0.6,1.8-0.9,2.6s-0.6,1.7-0.9,2.6
				h-5.6c0.9-2.6,1.8-5,2.6-7.2c0.8-2.2,1.6-4.3,2.4-6.2c0.8-1.9,1.5-3.8,2.3-5.5c0.8-1.7,1.5-3.5,2.4-5.1h5.1
				c0.8,1.7,1.6,3.4,2.3,5.1c0.8,1.7,1.5,3.6,2.3,5.5c0.8,1.9,1.6,4,2.4,6.2c0.8,2.2,1.7,4.6,2.6,7.2H444.7z M438.2,282.9
				c-0.1,0.4-0.3,0.8-0.5,1.4c-0.2,0.6-0.5,1.3-0.8,2.1s-0.6,1.7-1,2.6s-0.7,1.9-1.1,3h6.9c-0.4-1-0.7-2-1.1-3c-0.3-1-0.7-1.8-1-2.6
				c-0.3-0.8-0.6-1.5-0.8-2.1C438.5,283.7,438.3,283.3,438.2,282.9z"/>
		</g>
	</g>
	<path class="st5" d="M529.9,409h-218c-4,0-7.3-3.3-7.3-7.3v0c0-4,3.3-7.3,7.3-7.3h218c4,0,7.3,3.3,7.3,7.3v0
		C537.3,405.7,534,409,529.9,409z"/>
	<text transform="matrix(1 0 0 1 310.6388 405.6665)" class="st7 st2 st8">ERROR: Groupe_Avancé() is not a function</text>
</g>
</svg>
